PathFileType	4	(X/Y/Z)	/home/utkubuntu/opensim/opensim_mycode/release_code/bioimitation/imitation_envs/data/02905/02905_PRE/experimental_data/task.trc
DataRate	CameraRate	NumFrames	NumMarkers	Units	OrigDataRate	OrigDataStartFrame	OrigNumFrames
100.000000	100.000000	5	43	mm	100.000000	0	478
Frame#	Time	C7			CLAV			LANK			LASI			LBHD			LELB			LFHD			LFIN			LHEE			LKNE			LMED			LMET			LMIF			LPSI			LSHO			LTHI			LTIB			LTOE			LTTU			LWRA			LWRB			RANK			RASI			RBAK			RBHD			RELB			RFHD			RFIN			RHEE			RKNE			RMED			RMET			RMIF			RPSI			RSHO			RTHI			RTIB			RTOE			RTTU			RWRA			RWRB			STRN			T10			
		X1	Y1	Z1	X2	Y2	Z2	X3	Y3	Z3	X4	Y4	Z4	X5	Y5	Z5	X6	Y6	Z6	X7	Y7	Z7	X8	Y8	Z8	X9	Y9	Z9	X10	Y10	Z10	X11	Y11	Z11	X12	Y12	Z12	X13	Y13	Z13	X14	Y14	Z14	X15	Y15	Z15	X16	Y16	Z16	X17	Y17	Z17	X18	Y18	Z18	X19	Y19	Z19	X20	Y20	Z20	X21	Y21	Z21	X22	Y22	Z22	X23	Y23	Z23	X24	Y24	Z24	X25	Y25	Z25	X26	Y26	Z26	X27	Y27	Z27	X28	Y28	Z28	X29	Y29	Z29	X30	Y30	Z30	X31	Y31	Z31	X32	Y32	Z32	X33	Y33	Z33	X34	Y34	Z34	X35	Y35	Z35	X36	Y36	Z36	X37	Y37	Z37	X38	Y38	Z38	X39	Y39	Z39	X40	Y40	Z40	X41	Y41	Z41	X42	Y42	Z42	X43	Y43	Z43	

1	0	-1975.634033203125	1238.553955078125	199.0670013427734	-1874.651000976562	1155.511962890625	197.552993774414	-2073.34912109375	59.77500152587894	161.757995605469	-1907.635986328125	824.5969848632812	96.44799804687504	-1964.27197265625	1367.171997070312	132.2859954833984	-1918.112060546875	930.8579711914062	-7.751999855041476	-1825.112060546875	1385.550048828125	125.7669982910155	-1753.985961914062	726.9769897460938	-16.81200027465815	-2115.299072265625	30.68700027465825	209.7420043945315	-1993.093994140625	429.4159851074219	112.8339996337892	-2047.650024414062	66.20500183105474	230.3130035400393	-2002.350952148438	17.97800064086917	126.6230010986331	-2004.2099609375	64.72599792480473	181.934997558594	-2048.965087890625	853.7160034179688	166.7859954833985	-1946.880004882812	1191.566040039062	57.66699981689451	-1980.767944335938	487.2250061035156	62.5579986572267	-2045.18701171875	228.5269927978516	88.41000366210957	-1964.85205078125	34.00199890136722	153.3320007324221	-1955.52294921875	337.7309875488282	175.259002685547	-1771.470947265625	786.8419799804688	17.13299942016606	-1816.587036132812	746.343994140625	-5.104000091552678	-1925.452026367188	95.28199768066413	324.820007324219	-1900.026977539062	830.9409790039064	319.2850036621094	-2031.202026367188	1130.550048828125	289.5690002441406	-1972.265991210938	1341.843017578125	268.6780090332031	-2035.567016601562	963.5120239257814	410.0280151367188	-1820.43798828125	1375.068969726562	262.0159912109374	-2034.004028320312	704.8319702148439	438.6499938964844	-1964.391967773438	68.7119979858399	267.6409912109377	-1812.911010742188	452.8510131835938	353.7040100097657	-1498.282958984375	55.72100067138678	247.6719970703127	-1859.26904296875	39.14300155639656	362.9360046386721	-1855.951049804688	92.6470031738282	317.0209960937502	-2042.844970703125	855.4089965820314	261.6029968261719	-1937.880981445312	1216.592041015625	323.6979980468749	-1823.972045898438	540.8270263671876	400.0539855957032	-1873.076049804688	290.4479980468751	393.8489990234377	-1825.208984375	49.17699813842781	342.2929992675784	-1762.348022460938	365.7430114746094	309.8980102539064	-2011.985961914062	744.9609985351564	401.9320068359376	-2072.012939453125	749.0239868164064	433.3510131835938	-1852.93798828125	1033.583984375	197.6139984130859	-2038.754028320312	969.4769897460938	212.0460052490235	
2	0.01	-1965.68603515625	1237.962036132812	199.4790039062499	-1864.816040039062	1154.694946289062	198.0240020751953	-2073.4541015625	60.44699859619144	162.4730072021487	-1899.553955078125	823.718017578125	96.79599761962895	-1954.2509765625	1366.630981445312	133.1069946289062	-1904.005004882812	931.7559814453125	-8.314999580383274	-1815.050048828125	1384.89599609375	126.9850006103515	-1731.654052734375	735.64501953125	-15.56900024414058	-2115.26904296875	31.65699958801274	210.6309967041018	-1990.349975585938	429.5920104980469	113.1719970703126	-2047.680053710938	66.95999908447271	230.9880065917971	-2002.81494140625	18.01700019836429	127.0110015869143	-2004.22705078125	64.92299652099614	182.2720031738284	-2040.241943359375	853.7769775390625	167.5229949951172	-1936.756958007812	1191.317993164062	58.13800048828122	-1978.218017578125	487.4739990234375	62.77299880981459	-2044.1689453125	229.0749969482422	89.08399963378926	-1965.110961914062	33.99200057983402	153.4940032958987	-1953.3349609375	337.4830017089844	175.227996826172	-1752.368041992188	794.302001953125	18.40299987792972	-1795.10595703125	751.8660278320312	-4.940999984741158	-1894.324951171875	88.75700378417976	326.2699890136721	-1890.760986328125	830.0449829101564	319.5580139160157	-2021.779052734375	1130.050048828125	289.5140075683594	-1962.593994140625	1340.890014648438	269.3800048828124	-2027.883056640625	962.9229736328126	409.218994140625	-1810.464965820312	1374.066040039062	263.1600036621093	-2030.384033203125	704.3649902343751	437.6040039062501	-1932.9169921875	60.08399963378912	269.8009948730471	-1802.23095703125	452.4779968261719	353.9289855957032	-1498.282958984375	55.72100067138678	247.6719970703127	-1823.10498046875	36.88000106811531	362.6560058593752	-1823.659057617188	90.72399902343757	316.6900024414065	-2033.739990234375	855.2139892578126	262.3389892578126	-1928.234985351562	1215.660034179688	324.1969909667968	-1814.277954101562	540.0440063476564	400.3959960937501	-1854.35400390625	286.5989990234376	394.5889892578127	-1790.725952148438	49.09999847412117	341.5989990234377	-1748.798950195312	367.3309936523438	309.759002685547	-2007.691040039062	744.0079956054689	401.0759887695313	-2068.367919921875	748.9169921875001	430.7109985351563	-1843.56201171875	1032.673950195312	197.9539947509766	-2029.655029296875	969.18701171875	212.7760009765625	
3	0.02	-1955.72998046875	1237.364013671875	199.927993774414	-1854.951049804688	1153.85595703125	198.5440063476562	-2073.403076171875	61.17399978637699	163.1069946289065	-1891.578002929688	822.822998046875	97.19000244140629	-1944.223022460938	1366.08203125	133.9550018310546	-1889.9560546875	932.6480102539062	-8.819999694824196	-1804.968017578125	1384.224975585938	128.2220001220702	-1709.766967773438	744.197998046875	-14.28100013732906	-2115.133056640625	32.68299865722661	211.4420013427737	-1987.378051757812	429.7770080566406	113.5100021362306	-2047.4599609375	67.65699768066412	231.5659942626955	-2003.135986328125	18.08099937438968	127.3679962158206	-2004.097045898438	65.15499877929692	182.559997558594	-2031.472045898438	853.8070068359375	168.2660064697266	-1926.587036132812	1191.057983398438	58.65299987792966	-1975.608032226562	487.75	62.95100021362318	-2043.125	229.7100067138672	89.68399810791036	-1965.251953125	34.01599884033207	153.6139984130862	-1950.93603515625	337.2399902343751	175.2319946289064	-1733.613037109375	801.6060180664062	19.72299957275394	-1773.97705078125	757.2529907226562	-4.722000122070263	-1863.2939453125	82.70999908447273	327.6520080566409	-1881.4189453125	829.1110229492189	319.8630065917969	-2012.336059570312	1129.536987304688	289.4909973144531	-1952.920043945312	1339.93896484375	270.0989990234374	-2020.129028320312	962.3129882812501	408.4440002441406	-1800.531005859375	1373.06005859375	264.3399963378906	-2026.5009765625	703.9030151367189	436.6130065917969	-1901.39794921875	51.95500183105474	271.7959899902346	-1791.802001953125	451.9689941406251	354.092987060547	-1498.282958984375	55.72100067138678	247.6719970703127	-1787.52294921875	35.02700042724617	362.3299865722659	-1792.142944335938	89.0419998168946	316.4159851074221	-2024.5849609375	854.9910278320314	263.0840148925782	-1918.588012695312	1214.733032226562	324.7149963378906	-1805.083984375	539.0070190429689	400.7359924316407	-1835.401977539062	282.769012451172	395.3880004882814	-1756.862060546875	49.29499816894539	340.8320007324221	-1735.51904296875	368.8139953613282	309.5700073242189	-2003.182006835938	743.0759887695314	400.3009948730469	-2064.214111328125	748.7559814453126	428.3829956054688	-1834.134033203125	1031.748046875	198.3419952392578	-2020.453002929688	968.85302734375	213.5090026855469	
4	0.03	-1945.767944335938	1236.7509765625	200.4550018310546	-1845.026000976562	1152.97900390625	199.1609954833984	-2073.19189453125	62.00600051879886	163.6150054931643	-1883.626953125	821.9340209960938	97.6579971313477	-1934.177978515625	1365.505004882812	134.8560028076171	-1875.995971679688	933.5280151367188	-9.225999832153299	-1794.85498046875	1383.526000976562	129.5050048828124	-1688.567993164062	752.6019897460938	-12.90299987792965	-2114.9130859375	33.83000183105474	212.1230010986331	-1984.057983398438	429.9840087890625	113.8489990234376	-2046.946044921875	68.29299926757818	231.9909973144534	-2003.31494140625	18.18300056457522	127.6729965209963	-2003.824951171875	65.45099639892582	182.7640075683596	-2022.640991210938	853.7689819335938	169.0570068359376	-1916.318969726562	1190.767944335938	59.24900054931638	-1972.755981445312	488.0570068359375	63.10699844360365	-2041.962036132812	230.4609985351563	90.18499755859395	-1965.284057617188	34.07699966430668	153.6790008544924	-1948.256958007812	337.0039978027344	175.279998779297	-1715.401000976562	808.677978515625	21.13199996948245	-1753.401977539062	762.4879760742188	-4.381000041961625	-1832.275024414062	77.49800109863288	328.9289855957034	-1871.947998046875	828.1060180664064	320.2170104980469	-2002.862060546875	1128.991943359375	289.5260009765625	-1943.243041992188	1338.982055664062	270.8609924316406	-2012.281982421875	961.6680297851564	407.7300109863281	-1790.672973632812	1372.0419921875	265.5950012207031	-2022.160034179688	703.4359741210939	435.7130126953126	-1869.72705078125	44.70100021362311	273.5719909667971	-1781.81201171875	451.1990051269532	354.1539916992189	-1498.282958984375	55.72100067138678	247.6719970703127	-1752.859008789062	33.93500137329109	361.9509887695315	-1761.678955078125	87.85399627685554	316.2359924316409	-2015.35205078125	854.7000122070314	263.8699951171876	-1908.947998046875	1213.800048828125	325.2869873046874	-1796.746948242188	537.5109863281251	401.0759887695314	-1816.068969726562	279.0310058593751	396.2720031738283	-1723.819946289062	50.06100082397469	339.9670104980471	-1722.697021484375	370.1170043945313	309.269012451172	-1998.248046875	742.1699829101564	399.6499938964844	-2059.31005859375	748.5180053710939	426.5029907226563	-1824.635986328125	1030.785034179688	198.8280029296875	-2011.110961914062	968.448974609375	214.27099609375	
5	0.04	-1935.802001953125	1236.119018554688	201.0829925537109	-1835.02001953125	1152.066040039062	199.9040069580078	-2072.85595703125	62.96400070190433	163.9900054931643	-1875.376953125	821.1279907226562	98.19499969482426	-1924.095947265625	1364.879028320312	135.8170013427734	-1862.159057617188	934.3829956054688	-9.510000228881816	-1784.703979492188	1382.800048828125	130.854995727539	-1668.142944335938	760.8289794921875	-11.42500019073483	-2114.64892578125	35.14500045776372	212.6490020751956	-1980.338012695312	430.2239990234375	114.1859970092775	-2046.23095703125	68.93299865722662	232.2590026855471	-2003.381958007812	18.31299972534183	127.914001464844	-2003.448974609375	65.81999969482426	182.8719940185549	-2013.753051757812	853.6329956054688	169.9519958496094	-1905.910034179688	1190.430053710938	59.94699859619138	-1969.35595703125	488.3720092773438	63.28599929809584	-2040.508056640625	231.3040008544922	90.59999847412129	-1965.22705078125	34.14500045776371	153.7089996337893	-1945.280029296875	336.7820129394532	175.352005004883	-1697.796020507812	815.4669799804688	22.63500022888186	-1733.489013671875	767.6240234375	-3.864000082015949	-1801.368041992188	73.28199768066413	330.0979919433596	-1862.318969726562	827.0280151367189	320.6149902343751	-1993.348022460938	1128.399047851562	289.6319885253906	-1933.552001953125	1338.015014648438	271.6830139160156	-2004.338989257812	960.9920043945314	407.0989990234375	-1780.885986328125	1371.008056640625	266.9479980468749	-2017.212036132812	702.9550170898439	434.9179992675782	-1838.046020507812	38.53699874877936	275.1979980468752	-1772.328979492188	450.1050109863282	354.0979919433595	-1498.282958984375	55.72100067138678	247.6719970703127	-1719.307983398438	33.81600189208992	361.5509948730471	-1732.244018554688	87.35299682617195	316.1659851074221	-2006.01904296875	854.3040161132814	264.7380065917969	-1899.31201171875	1212.85400390625	325.9450073242187	-1789.35400390625	535.4769897460939	401.4119873046876	-1796.407958984375	275.5270080566407	397.2229919433595	-1691.656005859375	51.61000061035164	339.0320129394534	-1710.410034179688	371.2130126953126	308.8080139160158	-1992.725952148438	741.2899780273439	399.1210021972657	-2053.68896484375	748.2189941406251	425.0310058593751	-1815.068969726562	1029.779052734375	199.4440002441406	-2001.642944335938	967.97900390625	215.0959930419922	
